<svg xmlns="http://www.w3.org/2000/svg" viewBox="0 0 534 534" width="534" height="534">
	<defs>
		<linearGradient id="grd1" gradientUnits="userSpaceOnUse"  x1="210.232" y1="140.717" x2="198.118" y2="145.439">
			<stop offset="0" stop-color="#000000" stop-opacity="0.41" />
			<stop offset="1" stop-color="#000000" stop-opacity="0" />
		</linearGradient>
		<linearGradient id="grd2" gradientUnits="userSpaceOnUse"  x1="206.404" y1="166.225" x2="179.374" y2="226.191">
			<stop offset="0" stop-color="#ffffff" stop-opacity="0.18" />
			<stop offset="1" stop-color="#ffffff" stop-opacity="0.38" />
		</linearGradient>
		<linearGradient id="grd3" gradientUnits="userSpaceOnUse"  x1="160.869" y1="99.567" x2="26369.134" y2="99.567">
			<stop offset="0" stop-color="#ffffff" stop-opacity="0.18" />
			<stop offset="1" stop-color="#ffffff" stop-opacity="0.38" />
		</linearGradient>
	</defs>
	<style>
		tspan { white-space:pre }
		.shp0 { fill: #51d216;stroke: #000000;stroke-linejoin:round;stroke-width: 10 } 
		.shp1 { fill: #000000;stroke: #000000;stroke-width: 5 } 
		.shp2 { fill: url(#grd1) } 
		.shp3 { fill: url(#grd2) } 
		.shp4 { fill: url(#grd3) } 
		.shp5 { opacity: 0.318;fill: #ffffff;stroke: #000000;stroke-width: 1.878 } 
	</style>
	<g id="Layer">
		<path id="path575" class="shp0" d="M96.86,198.9c2.91,-12.97 5.83,-102.34 32.05,-100.89c93.23,2.88 189.38,-93.69 259.3,121.07c215.6,100.89 14.99,181.97 -155.69,174.76c-168.66,-7.06 -312.66,-128.64 -135.66,-194.94h0z" />
		<path id="path576" class="shp1" d="M89.49,230.73c107.8,67.74 285.53,25.94 292.81,-7.21c10.2,11.53 0,43.24 0,43.24c-46.62,60.54 -272.41,47.56 -297.18,4.32c-2.91,-11.53 2.91,-36.03 4.37,-40.36h0z" />
		<path id="path578" class="shp2" d="M130.28,122.63c27.68,-24.5 148.59,10.09 164.61,28.83c5.83,31.71 -148.59,7.21 -164.61,-28.83z" />
		<path id="path583" class="shp3" d="M130.28,158.66c13.11,30.27 64.1,100.89 150.05,33.15c-71.38,2.88 -101.97,-5.77 -150.05,-33.15z" />
		<path id="path588" class="shp4" d="M160.87,99.57c18.94,8.65 138.39,41.8 151.5,31.71c14.57,-5.77 11.65,-8.65 4.37,-10.09c-11.65,7.21 -32.05,11.53 -155.87,-21.62z" />
		<path id="path590" class="shp5" d="M106.97,246.58c17.48,8.65 71.38,20.18 91.78,21.62c14.57,10.09 7.28,25.94 1.46,37.48c-39.33,0 -84.49,-10.09 -96.15,-23.06c-7.28,-12.97 -4.37,-23.06 2.91,-36.03z" />
	</g>
</svg>